PathFileType	4	(X/Y/Z)	36_1_rein_25_p0_0-246.trc
DataRate	CameraRate	NumFrames	NumMarkers	Units	OrigDataRate	OrigDataStartFrame	OrigNumFrames
59.0	59.0	6	27	m	59.0	30	247
Frame#	Time	RHip			RKnee			RAnkle			RBigToe			RSmallToe			RHeel			LHip			LKnee			LAnkle			LBigToe			LSmallToe			LHeel			Neck			Head			Nose			RShoulder			RElbow			RWrist			RThumb			RIndex			RPinky			LShoulder			LElbow			LWrist			LThumb			LIndex			LPinky			
		X1	Y1	Z1	X2	Y2	Z2	X3	Y3	Z3	X4	Y4	Z4	X5	Y5	Z5	X6	Y6	Z6	X7	Y7	Z7	X8	Y8	Z8	X9	Y9	Z9	X10	Y10	Z10	X11	Y11	Z11	X12	Y12	Z12	X13	Y13	Z13	X14	Y14	Z14	X15	Y15	Z15	X16	Y16	Z16	X17	Y17	Z17	X18	Y18	Z18	X19	Y19	Z19	X20	Y20	Z20	X21	Y21	Z21	X22	Y22	Z22	X23	Y23	Z23	X24	Y24	Z24	X25	Y25	Z25	X26	Y26	Z26	X27	Y27	Z27	
30	0.5084745762711864	0.2774047810235453	0.48171460598867477	-0.10163820317634754	0.3343572869491509	0.5767743689883618	0.3271865623142128	0.3886077181949404	0.7248837088861089	0.7186026116015148	0.36602646476536643	0.5549599430855167	0.7535634254303827	0.4251577620621604	0.5569270202678761	0.7437688281522629	0.36155382133882263	0.8189607406524934	0.7812469416325286	0.08795020725453197	0.49489662874474194	-0.0830075380274054	0.10620879079074196	0.6512454801203977	0.36570492916287695	0.1337769097848434	0.720580950911285	0.7476597831752491	0.17619362782207273	0.5105020714135045	0.7534579034278684	0.11905063372425055	0.5642937758839057	0.7794677621700387	0.13530890303923604	0.7781679277114024	0.806358170205779	0.1568229741128422	0.47912302142658525	-0.578068764398145	0.15109260725383228	0.41230427736883796	-0.8124861252274999	0.1498136328157512	0.3684503409176528	-0.6816319852140886	0.3045622592719103	0.4906279685694344	-0.49856968014117353	0.3488364553974611	0.4847546666991638	-0.24627411643703465	0.31341101277758204	0.394989794264365	-0.035392810677435285	0.21027756720677646	0.27710955865065223	0.02181025422415279	0.20510957820551062	0.28199633477866415	0.08073687869299738	0.24723204034886145	0.34557383647642403	0.09449848937725416	0.012525125167924433	0.46919753938010134	-0.4795735537455848	0.021254703941772698	0.45882444420152657	-0.2253009126101731	0.12401501581128961	0.3394644366436488	-0.04310145641944437	0.20456805485311313	0.2650053626751228	0.004687374093029961	0.2120045198226649	0.2691827982911891	0.06301029002684601	0.18299188430147365	0.321374013658503	0.09223684023379415
31	0.5254237288135594	0.277789021569686	0.4814044937804888	-0.09806643619688388	0.33021299125033526	0.5621372094160643	0.3234250965369768	0.38842428767912623	0.724241261223199	0.7187359150745554	0.3633148658713448	0.5430100298852865	0.752809470445243	0.4207941629891088	0.5428063189853048	0.7381103047676555	0.3659445674741106	0.8312855212257456	0.7865675345227248	0.09189390781987847	0.4796590823170116	-0.09020036590693634	0.11237045962825663	0.6388334434419317	0.36556579202464873	0.13389872149684817	0.721374242883297	0.7387760466775343	0.17615666321107698	0.5095475747067185	0.7528187094583635	0.11912523873786778	0.5631347834375199	0.7781553266067415	0.13560399468507886	0.779012391053359	0.7965565432312387	0.1568680729772453	0.47915582648877436	-0.5780630309947169	0.15085495876110927	0.4126622002613769	-0.815739106220668	0.15407403057930968	0.3567986077077431	-0.6819501246814123	0.3045603520875555	0.4906441386967528	-0.4986044571914593	0.3488817221300324	0.4848694414155621	-0.2462751736805328	0.31508660005215944	0.39521247647005203	-0.027950937960763696	0.20944301692399275	0.2662162646376332	0.03494787705032282	0.20961434315466554	0.28229884594813875	0.08342399271403983	0.25610250659373324	0.34712235534807084	0.10485435855797968	0.01257747338527536	0.4693275443286269	-0.4795905440621336	0.021416244674458705	0.4586694085900503	-0.22151126379773584	0.12957545890472258	0.3280444967038969	-0.030774533039134168	0.20545730758510827	0.265746863723292	0.00879597133397648	0.2120014422869255	0.2693878059015771	0.07472011824601384	0.18245462676706473	0.3223983662253899	0.0976203272055126
32	0.5423728813559322	0.2736580550163401	0.47975270481661575	-0.09797556060050489	0.3299642539303715	0.5626239126032779	0.32372578358252946	0.388439533127919	0.7242366896224388	0.7186998290704916	0.36187452205474113	0.5415591257516411	0.7477978165758826	0.4174582183551618	0.5589366956090391	0.7461492112867453	0.36931920892452075	0.8332858423253566	0.7873913457342147	0.08508710995984724	0.46453281137732	-0.09606422348503596	0.11638757873082176	0.6420368638215498	0.3573060803911664	0.13124203981249785	0.7217918771529223	0.7262111548677352	0.1741677882976028	0.5076806553924085	0.7471693325398422	0.11830382953544144	0.5630841912174026	0.7790665571100008	0.13178583714002742	0.7746108017047592	0.7828004546734509	0.1568510723972308	0.4791248357649964	-0.5780602713343296	0.15037269030008024	0.4115694948107534	-0.8186393120886087	0.15408263667758254	0.35673217961729237	-0.6819105181892886	0.30462730480488925	0.49060414693071036	-0.49857618544984666	0.34881601562238446	0.4847238842083151	-0.24624694330378014	0.3197375543689533	0.38169294485858374	-0.027682219571400206	0.21426602625119906	0.3032560348469973	0.061110452941865866	0.21183656532061068	0.31921139942105214	0.10179186964592861	0.25631316771166623	0.3482185844861213	0.10589689571424762	0.012549913591527401	0.4692244542425357	-0.479615258969317	0.021411087874805907	0.4590665525277552	-0.22502366037826124	0.11430484780374826	0.3668711692616124	-0.011304404707912675	0.19385672070660834	0.30538236256790635	0.02393387183511298	0.2071494165064816	0.33217254153458603	0.09914211581244652	0.18288620382178283	0.3468196517592001	0.11022615024422994
33	0.559322033898305	0.2783140497357494	0.46515672313245277	-0.09764926253584758	0.32958032371132506	0.5617474651621741	0.3238500843088521	0.3878832854757911	0.7238906107711075	0.7190215748526829	0.3580195716543244	0.5584244840609428	0.7562396045192945	0.41737856074041	0.5598635884810477	0.7465925133136717	0.3616668551453194	0.8293788110300095	0.7778608591404982	0.09028019732982429	0.44963430123267706	-0.09134537284010653	0.11134628899511133	0.6367544694212022	0.360559322418379	0.13050850516022794	0.7177591637311564	0.7238749595400947	0.17374564811960852	0.50770321286368	0.7476504076306781	0.11853205051845354	0.5623956848259513	0.7754825422323287	0.13532457823300367	0.7550222526743783	0.7765071674733914	0.15686592691712492	0.47911034906797834	-0.5780784781353258	0.15442643891494418	0.3993274368863908	-0.8152159231432805	0.15407318279852156	0.35664430930261104	-0.6818515376434306	0.3046785647709218	0.49060166655753296	-0.498530940270796	0.34877130821701846	0.48486061646226697	-0.24624206280608854	0.3276424033732113	0.3942782977236327	-0.022092119446544656	0.2259737416159248	0.30344892678934615	0.06704104529013362	0.22768450878685761	0.3060868483332126	0.09816799799911502	0.2721212300601214	0.33502583066084995	0.10153484339768794	0.012500161047019166	0.4691610551971958	-0.4796223210910167	0.02119561452642983	0.45906475669174546	-0.22516370258003807	0.110347427592328	0.3808936342915485	0.004455943325512642	0.18429065590408122	0.331277779569476	0.03632176775039354	0.19433356790450831	0.3483416421733479	0.11134778376600352	0.17470512805926258	0.3729851505887895	0.11819330487060349
34	0.576271186440678	0.27811179329685737	0.46570776026542493	-0.09373472063610429	0.32727703911491973	0.5460436388125232	0.3099229726860913	0.3787982103499874	0.7073033149525328	0.7135553493036071	0.36187030564778294	0.542152208657225	0.748366112714712	0.42085942149990097	0.5439367790726558	0.7386709399850737	0.3523756622443707	0.8109680610889488	0.7808100527205841	0.09152861433058548	0.4507000204342547	-0.07925647336589192	0.10826070136007798	0.653308947276314	0.3616615746673082	0.13241716957995384	0.7181649552774231	0.7423429531555711	0.1741743905588036	0.5085470194466652	0.7477255379736597	0.11912295929281114	0.5633352443184286	0.7830054270015647	0.132121809570743	0.7731548119443309	0.7959713669199767	0.15683551150743996	0.47912743869592966	-0.5780748363240988	0.14978970722837015	0.3976232568161307	-0.8178357821097567	0.15408029938300774	0.35654116818976067	-0.6818282646749348	0.304676936029164	0.49071265252283813	-0.4985220114781177	0.34435361560367805	0.49752348217555975	-0.2442408965894442	0.3366573853322817	0.381239282592237	-0.02246964293892902	0.24679077147577738	0.3175676168077552	0.07554243707013716	0.2567959241657919	0.30832077801412977	0.10157885634507605	0.28408857688026223	0.3250945077453756	0.10130379231543045	0.012495885391224005	0.4692030137846129	-0.4795851823673586	0.01177956161864378	0.4696512731685761	-0.22630979502504722	0.10202425137599701	0.39412958136766446	0.008751709758018004	0.18152743584903047	0.34454607164043444	0.05400876270191719	0.18303806511102044	0.3483879806068541	0.1117328186121852	0.13540158256592674	0.39267231380335177	0.1291450736801009
35	0.5932203389830508	0.2771765602334409	0.4785792216203059	-0.09524703324713656	0.3309053514152554	0.5361648722110375	0.3231448282796937	0.37899574697130833	0.7196334174763649	0.7187738304431291	0.36189215373056327	0.5421990491166803	0.7481974711157774	0.41806273413573425	0.548446400901099	0.7412197809410445	0.3543430075149761	0.8249672639561798	0.7862343910458344	0.09529558371709256	0.45371397935730684	-0.08731683401692077	0.10517222769702	0.6188813912723844	0.35084187499534836	0.132345442777424	0.7185489408446729	0.7417592726653236	0.1692728023881781	0.5218160578335331	0.7540887925371599	0.11967308291951208	0.5637360944880734	0.7827003042890414	0.13230307559681684	0.7738010731897528	0.7953933796901396	0.15693020539405306	0.47919675793632677	-0.5780875024994322	0.15413224706759	0.39946521013557096	-0.8185065486072652	0.154117611180682	0.356079507717464	-0.6817461269111326	0.30469704766910266	0.49074416736553045	-0.4985011080003206	0.3444883937471348	0.4971671155006315	-0.2478554470741969	0.3409875938552844	0.3674808215861302	-0.029248755074963006	0.2728089398252676	0.32213473030518563	0.07427142742043127	0.27707994119634455	0.31189155438602173	0.10286508948004608	0.29660216412262036	0.33929129474398895	0.1038095782119266	0.012557531025430417	0.4691715061061051	-0.47971090227774965	0.011424656401756142	0.4699331510429349	-0.22661795119042752	0.09632863031902253	0.3901442071323779	-0.007632539028514287	0.16896867116100558	0.3397964209115895	0.057806913369197806	0.17012567350974747	0.34450640246766273	0.11171902391357852	0.11451597489451566	0.41215691741329713	0.12472566694387963
